<svg width="51" height="49" viewBox="0 0 51 49" fill="none" xmlns="http://www.w3.org/2000/svg">
<path d="M50.4 41.8999L40.05 3.24988C39.7747 2.22557 39.1038 1.35253 38.185 0.822765C37.2661 0.292998 36.1744 0.149879 35.15 0.424878L27.425 2.49988L27.175 2.57488C26.8024 2.08606 26.3221 1.68969 25.7715 1.41654C25.2208 1.14339 24.6147 1.00082 24 0.999878H16C15.2962 1.00177 14.6058 1.19165 14 1.54988C13.3942 1.19165 12.7038 1.00177 12 0.999878H4C2.93913 0.999878 1.92172 1.42131 1.17157 2.17145C0.421427 2.9216 0 3.93901 0 4.99988V44.9999C0 46.0607 0.421427 47.0782 1.17157 47.8283C1.92172 48.5784 2.93913 48.9999 4 48.9999H12C12.7038 48.998 13.3942 48.8081 14 48.4499C14.6058 48.8081 15.2962 48.998 16 48.9999H24C25.0609 48.9999 26.0783 48.5784 26.8284 47.8283C27.5786 47.0782 28 46.0607 28 44.9999V20.0999L34.95 46.0249C35.1765 46.8792 35.6795 47.6344 36.3806 48.1727C37.0816 48.7109 37.9412 49.0018 38.825 48.9999C39.1701 48.9939 39.5136 48.952 39.85 48.8749L47.575 46.7999C48.5993 46.5246 49.4723 45.8537 50.0021 44.9348C50.5319 44.0159 50.675 42.9243 50.4 41.8999ZM31.05 16.0249L38.775 13.9499L43.95 33.2749L36.225 35.3499L31.05 16.0249ZM36.175 4.29988L37.75 10.0749L30.025 12.1499L28.45 6.37488L36.175 4.29988ZM24 4.99988V34.9999H16V4.99988H24ZM12 4.99988V10.9999H4V4.99988H12ZM4 44.9999V14.9999H12V44.9999H4ZM24 44.9999H16V38.9999H24V44.9999ZM46.55 42.9249L38.825 44.9999L37.25 39.1999L45 37.1249L46.55 42.9249Z" fill="white"/>
</svg>
