<svg width="44" height="54" viewBox="0 0 44 54" fill="none" xmlns="http://www.w3.org/2000/svg">
<path d="M5.99984 0.333496C4.58535 0.333496 3.22879 0.895399 2.2286 1.89559C1.22841 2.89579 0.666504 4.25234 0.666504 5.66683V48.3335C0.666504 49.748 1.22841 51.1045 2.2286 52.1047C3.22879 53.1049 4.58535 53.6668 5.99984 53.6668H37.9998C39.4143 53.6668 40.7709 53.1049 41.7711 52.1047C42.7713 51.1045 43.3332 49.748 43.3332 48.3335V5.66683C43.3332 4.25234 42.7713 2.89579 41.7711 1.89559C40.7709 0.895399 39.4143 0.333496 37.9998 0.333496H5.99984ZM21.9998 8.3335C25.5361 8.3335 28.9274 9.73825 31.4279 12.2387C33.9284 14.7392 35.3332 18.1306 35.3332 21.6668C35.3332 25.2031 33.9284 28.5944 31.4279 31.0949C28.9274 33.5954 25.5361 35.0002 21.9998 35.0002C18.4636 35.0002 15.0722 33.5954 12.5717 31.0949C10.0713 28.5944 8.6665 25.2031 8.6665 21.6668C8.6665 18.1306 10.0713 14.7392 12.5717 12.2387C15.0722 9.73825 18.4636 8.3335 21.9998 8.3335ZM21.9998 11.0002C20.9065 12.6535 19.9998 14.4402 19.4398 16.3335H24.5598C23.986 14.4346 23.1225 12.6357 21.9998 11.0002ZM18.5332 11.5868C16.0798 12.4135 13.9998 14.1202 12.7732 16.3335H16.6665C17.1465 14.6802 17.7332 13.0802 18.5332 11.5868ZM25.4398 11.5868C26.2398 13.0802 26.8532 14.6802 27.3332 16.3335H31.2265C29.9998 14.1202 27.8932 12.4402 25.4398 11.5868ZM11.6798 19.0002C11.4665 19.8535 11.3332 20.7335 11.3332 21.6668C11.3332 22.6002 11.4665 23.4802 11.6798 24.3335H16.1865C16.0798 23.4535 15.9998 22.5735 15.9998 21.6668C15.9998 20.7602 16.0798 19.8802 16.1865 19.0002H11.6798ZM18.8798 19.0002C18.7465 19.8535 18.6665 20.7602 18.6665 21.6668C18.6665 22.5735 18.7465 23.4535 18.8798 24.3335H25.1198C25.2265 23.4535 25.3332 22.5735 25.3332 21.6668C25.3332 20.7602 25.2265 19.8535 25.1198 19.0002H18.8798ZM27.8132 19.0002C27.9198 19.8802 27.9998 20.7602 27.9998 21.6668C27.9998 22.5735 27.9198 23.4535 27.8132 24.3335H32.3198C32.5332 23.4802 32.6665 22.6002 32.6665 21.6668C32.6665 20.7335 32.5332 19.8535 32.3198 19.0002H27.8132ZM12.7732 27.0002C13.9998 29.2135 16.0798 30.8935 18.5332 31.7468C17.7332 30.2535 17.1465 28.6802 16.6665 27.0002H12.7732ZM19.4398 27.0002C19.9998 28.9202 20.9065 30.6802 21.9998 32.3335C23.1198 30.6802 23.9998 28.9202 24.5598 27.0002H19.4398ZM27.3332 27.0002C26.8532 28.6802 26.2398 30.2535 25.4398 31.7468C27.8932 30.8935 29.9998 29.2135 31.2265 27.0002H27.3332ZM8.6665 40.3335H35.3332V45.6668H8.6665V40.3335Z" fill="white"/>
</svg>
